<?xml version="1.0" encoding="UTF-8" standalone="no"?>
<!DOCTYPE svg PUBLIC "-//W3C//DTD SVG 1.1//EN" "http://www.w3.org/Graphics/SVG/1.1/DTD/svg11.dtd">
<svg width="100%" height="100%" viewBox="0 0 76 76" version="1.1" xmlns="http://www.w3.org/2000/svg" xmlns:xlink="http://www.w3.org/1999/xlink" xml:space="preserve" xmlns:serif="http://www.serif.com/" style="fill-rule:evenodd;clip-rule:evenodd;stroke-linejoin:round;stroke-miterlimit:2;">
    <g id="Dark">
        <g id="BG-Dark" serif:id="BG Dark" transform="matrix(0.928068,0,0,0.928068,-7.14604,-8.96873)">
            <circle cx="48.091" cy="50.327" r="37.637" style="fill:rgb(39,39,39);"/>
        </g>
        <g id="Submit-Dark" serif:id="Submit Dark" transform="matrix(1,0,0,1,2.1926,-0.0427293)">
            <g transform="matrix(0.847331,0,0,0.847331,9.33116,26.4239)">
                <path d="M35.402,39C35.919,38.925 36.363,38.851 36.806,38.702C41.611,36.912 46.268,34.75 50.703,32.14C61.2,26.249 62.456,23.191 62.382,21.178C62.308,19.985 61.643,17.897 57.799,17.226C54.251,16.629 51.442,16.331 49.077,16.182L48.042,16.107L48.855,15.511C55.73,10.365 66.374,4.474 66.817,4.176C67.557,3.803 68,3.057 68,2.237C68,0.969 66.965,0 65.783,0C65.413,0 65.043,0.075 64.748,0.298C64.156,0.597 50.555,8.128 43.607,14.019C42.35,15.138 41.02,16.405 41.611,18.195C42.202,20.059 43.976,20.283 47.672,20.581C49.964,20.73 53.068,21.029 56.912,21.625L57.651,21.774L57.134,22.296C53.808,25.503 41.611,32.811 34.958,34.6C34.81,34.675 34.663,34.675 34.589,34.75L31.632,30.648C32.519,29.753 32.149,28.933 31.632,28.187L24.018,17.524L15,26.621L25.792,34.228C26.531,34.75 27.418,35.122 28.158,34.228L34.367,38.776C34.589,38.925 34.81,39 35.032,39L35.402,39Z" style="fill:rgb(158,158,158);"/>
            </g>
            <g transform="matrix(0,0.847331,0.847331,0,-8.0391,23.4583)">
                <path d="M-6.5,20.5L16.934,20.5L28.5,33.103L18.824,42.5L-6.5,20.5Z" style="fill:rgb(158,158,158);"/>
            </g>
        </g>
    </g>
</svg>
