<?xml version="1.0" encoding="UTF-8" standalone="no"?>
<!DOCTYPE svg PUBLIC "-//W3C//DTD SVG 1.1//EN" "http://www.w3.org/Graphics/SVG/1.1/DTD/svg11.dtd">
<svg width="100%" height="100%" viewBox="0 0 86 89" version="1.1" xmlns="http://www.w3.org/2000/svg" xmlns:xlink="http://www.w3.org/1999/xlink" xml:space="preserve" xmlns:serif="http://www.serif.com/" style="fill-rule:evenodd;clip-rule:evenodd;stroke-linejoin:round;stroke-miterlimit:2;">
    <g>
        <path d="M15,3C6.72,3 0,9.72 0,18L0,74C0,82.28 6.72,89 15,89L71,89C79.28,89 86,82.28 86,74L86,18C86,9.72 79.28,3 71,3L15,3Z" style="fill:rgb(74,74,73);fill-rule:nonzero;"/>
        <path d="M15,0C6.72,0 0,6.72 0,15L0,71C0,79.28 6.72,86 15,86L71,86C79.28,86 86,79.28 86,71L86,15C86,6.72 79.28,0 71,0L15,0Z" style="fill:rgb(87,87,86);fill-rule:nonzero;"/>
    </g>
    <g>
        <path d="M70.22,16.79L70.39,11.68C70.4,11.27 70.16,10.88 69.77,10.73C65.58,9.02 60.62,9.79 57.13,13.05C56.94,13.23 56.84,13.47 56.83,13.73L56.65,19.17C56.62,20.04 55.57,20.45 54.96,19.84L52.74,17.62C52.37,17.25 51.78,17.23 51.39,17.58L28.48,37.59C28.46,37.61 28.44,37.63 28.42,37.65C26.05,40.04 24.66,43.03 24.24,46.13C24.13,46.94 23.14,47.28 22.56,46.7L21.69,45.83C21.28,45.42 20.61,45.45 20.23,45.89C15.19,51.71 15.44,60.52 20.96,66.05L70.22,16.79Z" style="fill:rgb(28,54,163);fill-rule:nonzero;"/>
        <path d="M70.22,16.79L75.33,16.62C75.74,16.61 76.13,16.85 76.28,17.24C77.99,21.43 77.22,26.39 73.96,29.88C73.78,30.07 73.54,30.17 73.28,30.18L67.84,30.36C66.97,30.39 66.56,31.44 67.17,32.05L69.38,34.27C69.75,34.64 69.77,35.23 69.43,35.62L49.42,58.53C49.4,58.55 49.38,58.57 49.36,58.59C46.97,60.96 43.98,62.35 40.88,62.77C40.07,62.88 39.73,63.87 40.31,64.45L41.18,65.32C41.59,65.73 41.56,66.4 41.12,66.78C35.3,71.82 26.49,71.57 20.97,66.05L70.22,16.79Z" style="fill:rgb(61,120,214);fill-rule:nonzero;"/>
        <path d="M15.36,74.23L22.23,67.36L70.48,16.53L19.65,64.78L8.98,75.45C8.66,75.77 8.89,76.32 9.34,76.32L10.3,76.32C12.2,76.32 14.02,75.57 15.36,74.23" style="fill:rgb(0,15,87);fill-rule:nonzero;"/>
    </g>
</svg>
