<?xml version="1.0" encoding="utf-8"?>
<!-- Generator: Adobe Illustrator 25.0.1, SVG Export Plug-In . SVG Version: 6.00 Build 0)  -->
<svg version="1.1" id="Ebene_1" xmlns="http://www.w3.org/2000/svg" xmlns:xlink="http://www.w3.org/1999/xlink" x="0px" y="0px"
	 viewBox="0 0 86 89" style="enable-background:new 0 0 86 89;" xml:space="preserve">
<style type="text/css">
	.st0{fill:#B2B2B2;}
	.st1{fill:#EDEDED;}
	.st2{fill:#1C36A3;}
	.st3{fill:#3D78D6;}
	.st4{fill:#000F57;}
</style>
<g>
	<path class="st0" d="M15,3C6.72,3,0,9.72,0,18v56c0,8.28,6.72,15,15,15h56c8.28,0,15-6.72,15-15V18c0-8.28-6.72-15-15-15H15z"/>
	<path class="st1" d="M15,0C6.72,0,0,6.72,0,15v56c0,8.28,6.72,15,15,15h56c8.28,0,15-6.72,15-15V15c0-8.28-6.72-15-15-15H15z"/>
</g>
<g>
	<path class="st2" d="M70.22,16.79l0.17-5.11c0.01-0.41-0.23-0.8-0.62-0.95c-4.19-1.71-9.15-0.94-12.64,2.32
		c-0.19,0.18-0.29,0.42-0.3,0.68l-0.18,5.44c-0.03,0.87-1.08,1.28-1.69,0.67l-2.22-2.22c-0.37-0.37-0.96-0.39-1.35-0.04L28.48,37.59
		c-0.02,0.02-0.04,0.04-0.06,0.06c-2.37,2.39-3.76,5.38-4.18,8.48c-0.11,0.81-1.1,1.15-1.68,0.57l-0.87-0.87
		c-0.41-0.41-1.08-0.38-1.46,0.06c-5.04,5.82-4.79,14.63,0.73,20.16L70.22,16.79z"/>
	<path class="st3" d="M70.22,16.79l5.11-0.17c0.41-0.01,0.8,0.23,0.95,0.62c1.71,4.19,0.94,9.15-2.32,12.64
		c-0.18,0.19-0.42,0.29-0.68,0.3l-5.44,0.18c-0.87,0.03-1.28,1.08-0.67,1.69l2.21,2.22c0.37,0.37,0.39,0.96,0.05,1.35L49.42,58.53
		c-0.02,0.02-0.04,0.04-0.06,0.06c-2.39,2.37-5.38,3.76-8.48,4.18c-0.81,0.11-1.15,1.1-0.57,1.68l0.87,0.87
		c0.41,0.41,0.38,1.08-0.06,1.46c-5.82,5.04-14.63,4.79-20.15-0.73L70.22,16.79z"/>
	<path class="st4" d="M15.36,74.23l6.87-6.87l48.25-50.83L19.65,64.78L8.98,75.45c-0.32,0.32-0.09,0.87,0.36,0.87h0.96
		C12.2,76.32,14.02,75.57,15.36,74.23"/>
</g>
</svg>
