<?xml version="1.0" encoding="UTF-8" standalone="no"?>
<!DOCTYPE svg PUBLIC "-//W3C//DTD SVG 1.1//EN" "http://www.w3.org/Graphics/SVG/1.1/DTD/svg11.dtd">
<svg width="100%" height="100%" viewBox="0 0 86 89" version="1.1" xmlns="http://www.w3.org/2000/svg" xmlns:xlink="http://www.w3.org/1999/xlink" xml:space="preserve" xmlns:serif="http://www.serif.com/" style="fill-rule:evenodd;clip-rule:evenodd;stroke-linejoin:round;stroke-miterlimit:2;">
    <g>
        <path d="M15,3C6.72,3 0,9.72 0,18L0,74C0,82.28 6.72,89 15,89L71,89C79.28,89 86,82.28 86,74L86,18C86,9.72 79.28,3 71,3L15,3Z" style="fill:rgb(74,74,73);fill-rule:nonzero;"/>
        <path d="M15,0C6.72,0 0,6.72 0,15L0,71C0,79.28 6.72,86 15,86L71,86C79.28,86 86,79.28 86,71L86,15C86,6.72 79.28,0 71,0L15,0Z" style="fill:rgb(87,87,86);fill-rule:nonzero;"/>
    </g>
    <g>
        <path d="M25.62,23.69C25.54,23.48 25.48,23.25 25.43,22.99C25.39,22.73 25.36,22.48 25.36,22.25C25.36,21.88 25.4,21.54 25.47,21.24C25.54,20.94 25.65,20.65 25.8,20.38C25.94,20.11 26.13,19.85 26.34,19.61C26.56,19.37 26.81,19.12 27.1,18.88C27.4,18.62 27.67,18.38 27.9,18.16C28.13,17.94 28.32,17.72 28.48,17.5C28.64,17.28 28.76,17.05 28.84,16.81C28.92,16.57 28.96,16.31 28.96,16.02C28.96,15.77 28.92,15.54 28.83,15.33C28.74,15.12 28.62,14.93 28.45,14.78C28.28,14.63 28.08,14.51 27.85,14.42C27.61,14.33 27.35,14.29 27.06,14.29C26.43,14.29 25.78,14.42 25.11,14.68C24.44,14.94 23.8,15.34 23.19,15.87L23.19,12.24C23.81,11.87 24.48,11.59 25.21,11.41C25.94,11.23 26.7,11.13 27.47,11.13C28.22,11.13 28.91,11.21 29.55,11.38C30.19,11.54 30.75,11.8 31.23,12.16C31.71,12.51 32.08,12.97 32.35,13.52C32.62,14.07 32.75,14.73 32.75,15.5C32.75,15.99 32.69,16.43 32.58,16.83C32.47,17.23 32.3,17.6 32.09,17.96C31.87,18.31 31.6,18.65 31.28,18.98C30.96,19.31 30.59,19.64 30.17,19.99C29.89,20.22 29.64,20.44 29.43,20.64C29.22,20.84 29.04,21.04 28.9,21.24C28.76,21.44 28.65,21.65 28.58,21.87C28.51,22.09 28.47,22.34 28.47,22.62C28.47,22.81 28.5,23.01 28.55,23.21C28.6,23.41 28.67,23.58 28.76,23.72L25.62,23.72L25.62,23.69ZM27.38,28.97C26.74,28.97 26.2,28.78 25.78,28.39C25.35,27.99 25.14,27.51 25.14,26.97C25.14,26.41 25.35,25.94 25.78,25.56C26.21,25.18 26.74,24.99 27.38,24.99C28.01,24.99 28.54,25.18 28.96,25.56C29.38,25.93 29.59,26.4 29.59,26.97C29.59,27.55 29.39,28.03 28.98,28.4C28.55,28.78 28.02,28.97 27.38,28.97Z" style="fill:rgb(235,92,13);fill-rule:nonzero;"/>
    </g>
    <g>
        <path d="M20.14,32.64C20.02,32.5 19.9,32.33 19.79,32.14C19.68,31.95 19.59,31.76 19.52,31.57C19.41,31.28 19.35,31 19.31,30.74C19.28,30.48 19.28,30.22 19.32,29.97C19.36,29.72 19.43,29.46 19.53,29.2C19.63,28.94 19.76,28.68 19.92,28.41C20.09,28.12 20.23,27.85 20.35,27.61C20.47,27.37 20.56,27.14 20.62,26.92C20.68,26.7 20.71,26.48 20.71,26.27C20.71,26.06 20.66,25.84 20.58,25.61C20.51,25.41 20.41,25.24 20.28,25.1C20.15,24.96 20,24.85 19.82,24.78C19.65,24.71 19.45,24.67 19.24,24.67C19.03,24.67 18.81,24.71 18.58,24.79C18.08,24.97 17.61,25.26 17.15,25.66C16.69,26.06 16.3,26.56 15.98,27.15L14.94,24.28C15.32,23.81 15.78,23.4 16.3,23.04C16.82,22.68 17.39,22.39 18.01,22.17C18.6,21.95 19.17,21.82 19.73,21.77C20.29,21.71 20.8,21.76 21.28,21.9C21.76,22.04 22.18,22.29 22.55,22.65C22.92,23.01 23.22,23.49 23.44,24.1C23.58,24.49 23.66,24.85 23.69,25.2C23.72,25.55 23.69,25.89 23.62,26.23C23.55,26.57 23.44,26.92 23.28,27.27C23.12,27.62 22.92,27.99 22.69,28.38C22.54,28.65 22.4,28.89 22.29,29.11C22.18,29.33 22.1,29.54 22.04,29.73C21.99,29.93 21.96,30.12 21.97,30.32C21.98,30.52 22.02,30.72 22.1,30.95C22.15,31.1 22.23,31.25 22.33,31.39C22.43,31.53 22.53,31.65 22.64,31.73L20.14,32.64ZM23.05,36.3C22.54,36.48 22.06,36.49 21.62,36.3C21.17,36.11 20.86,35.79 20.71,35.36C20.55,34.92 20.58,34.48 20.81,34.06C21.04,33.64 21.4,33.34 21.91,33.15C22.41,32.97 22.88,32.97 23.32,33.14C23.76,33.31 24.06,33.62 24.22,34.07C24.39,34.53 24.36,34.96 24.15,35.38C23.92,35.81 23.56,36.12 23.05,36.3Z" style="fill:rgb(235,92,13);fill-rule:nonzero;"/>
    </g>
    <path d="M57.39,12.41C43.06,12.41 31.44,24.24 31.44,38.83L19.04,38.83C16.86,38.83 15.3,40.93 15.86,43.08C16.38,45.1 17.28,46.97 18.46,48.61C20.2,51.01 22.56,52.92 25.3,54.08C29.02,55.66 31.44,59.37 31.44,63.48L31.44,65.25C45.77,65.25 57.39,53.42 57.39,38.83L57.39,12.41Z" style="fill:rgb(235,92,13);fill-rule:nonzero;"/>
    <path d="M31.44,64.07L31.44,75.15C36.81,75.15 41.17,70.71 41.17,65.24C41.17,64.22 41.74,63.27 42.64,62.83C51.36,58.57 57.38,49.5 57.38,39L57.38,37.65C57.39,52.24 45.77,64.07 31.44,64.07" style="fill:rgb(212,61,13);fill-rule:nonzero;"/>
    <path d="M57.4,28.93L57.4,12.41C65.31,12.41 71.91,18.19 73.33,25.82C73.63,27.43 72.41,28.92 70.8,28.92L57.4,28.92L57.4,28.93Z" style="fill:rgb(255,222,0);fill-rule:nonzero;"/>
    <path d="M57.39,38.84L57.39,28.93L67.12,28.93C67.12,34.4 62.76,38.84 57.39,38.84" style="fill:rgb(255,197,0);fill-rule:nonzero;"/>
    <path d="M47.66,28.93C47.66,34.4 52.02,38.84 57.39,38.84L57.39,19.02C52.02,19.02 47.66,23.46 47.66,28.93" style="fill:white;fill-rule:nonzero;"/>
    <path d="M53.26,22.8C54.36,22.8 55.25,23.71 55.25,24.82C55.25,25.94 54.36,26.84 53.26,26.84C52.16,26.84 51.27,25.93 51.27,24.82C51.28,23.7 52.17,22.8 53.26,22.8" style="fill:rgb(28,28,28);fill-rule:nonzero;"/>
    <path d="M31.53,55.35C23.77,55.31 17.31,49.73 15.76,42.29C15.77,42.55 15.8,42.82 15.87,43.08C16.39,45.1 17.28,46.97 18.47,48.61C20.21,51.01 22.57,52.92 25.31,54.08C26.69,54.66 27.88,55.54 28.84,56.62C29.69,56.77 30.56,56.85 31.45,56.86L31.61,56.86C40.49,56.77 47.66,49.42 47.66,40.35L47.59,40.35C46.84,48.73 39.94,55.3 31.53,55.35" style="fill:rgb(212,61,13);fill-rule:nonzero;"/>
</svg>
