<?xml version="1.0" encoding="UTF-8" standalone="no"?>
<!DOCTYPE svg PUBLIC "-//W3C//DTD SVG 1.1//EN" "http://www.w3.org/Graphics/SVG/1.1/DTD/svg11.dtd">
<svg width="100%" height="100%" viewBox="0 0 86 89" version="1.1" xmlns="http://www.w3.org/2000/svg" xmlns:xlink="http://www.w3.org/1999/xlink" xml:space="preserve" xmlns:serif="http://www.serif.com/" style="fill-rule:evenodd;clip-rule:evenodd;stroke-linejoin:round;stroke-miterlimit:2;">
    <g>
        <path d="M15,3C6.72,3 0,9.72 0,18L0,74C0,82.28 6.72,89 15,89L71,89C79.28,89 86,82.28 86,74L86,18C86,9.72 79.28,3 71,3L15,3Z" style="fill:rgb(178,178,178);fill-rule:nonzero;"/>
        <path d="M15,0C6.72,0 0,6.72 0,15L0,71C0,79.28 6.72,86 15,86L71,86C79.28,86 86,79.28 86,71L86,15C86,6.72 79.28,0 71,0L15,0Z" style="fill:rgb(237,237,237);fill-rule:nonzero;"/>
    </g>
    <g transform="matrix(2.96188,0,0,2.96188,-41.4961,-16.8358)">
        <path d="M25.62,23.69C25.54,23.48 25.48,23.25 25.43,22.99C25.39,22.73 25.36,22.48 25.36,22.25C25.36,21.88 25.4,21.54 25.47,21.24C25.54,20.94 25.65,20.65 25.8,20.38C25.94,20.11 26.13,19.85 26.34,19.61C26.56,19.37 26.81,19.12 27.1,18.88C27.4,18.62 27.67,18.38 27.9,18.16C28.13,17.94 28.32,17.72 28.48,17.5C28.64,17.28 28.76,17.05 28.84,16.81C28.92,16.57 28.96,16.31 28.96,16.02C28.96,15.77 28.92,15.54 28.83,15.33C28.74,15.12 28.62,14.93 28.45,14.78C28.28,14.63 28.08,14.51 27.85,14.42C27.61,14.33 27.35,14.29 27.06,14.29C26.43,14.29 25.78,14.42 25.11,14.68C24.44,14.94 23.8,15.34 23.19,15.87L23.19,12.24C23.81,11.87 24.48,11.59 25.21,11.41C25.94,11.23 26.7,11.13 27.47,11.13C28.22,11.13 28.91,11.21 29.55,11.38C30.19,11.54 30.75,11.8 31.23,12.16C31.71,12.51 32.08,12.97 32.35,13.52C32.62,14.07 32.75,14.73 32.75,15.5C32.75,15.99 32.69,16.43 32.58,16.83C32.47,17.23 32.3,17.6 32.09,17.96C31.87,18.31 31.6,18.65 31.28,18.98C30.96,19.31 30.59,19.64 30.17,19.99C29.89,20.22 29.64,20.44 29.43,20.64C29.22,20.84 29.04,21.04 28.9,21.24C28.76,21.44 28.65,21.65 28.58,21.87C28.51,22.09 28.47,22.34 28.47,22.62C28.47,22.81 28.5,23.01 28.55,23.21C28.6,23.41 28.67,23.58 28.76,23.72L25.62,23.72L25.62,23.69ZM27.38,28.97C26.74,28.97 26.2,28.78 25.78,28.39C25.35,27.99 25.14,27.51 25.14,26.97C25.14,26.41 25.35,25.94 25.78,25.56C26.21,25.18 26.74,24.99 27.38,24.99C28.01,24.99 28.54,25.18 28.96,25.56C29.38,25.93 29.59,26.4 29.59,26.97C29.59,27.55 29.39,28.03 28.98,28.4C28.55,28.78 28.02,28.97 27.38,28.97Z" style="fill:rgb(0,200,34);fill-rule:nonzero;"/>
    </g>
</svg>
